<?xml version="1.0" encoding="UTF-8"?>
<!-- Generated by Pixelmator Pro 3.7.1 -->
<svg width="1670" height="1670" viewBox="0 0 1670 1670" xmlns="http://www.w3.org/2000/svg">
    <path id="Abgerundetes-Rechteck" fill="#91d5fe" fill-rule="evenodd" stroke="none" d="M 426.777771 306.166626 C 355.042725 306.166626 296.888885 364.320557 296.888885 436.055542 L 296.888885 1243.222168 C 296.888885 1314.957275 355.042725 1373.111084 426.777771 1373.111084 L 1233.944458 1373.111084 C 1305.679443 1373.111084 1363.833374 1314.957275 1363.833374 1243.222168 L 1363.833374 436.055542 C 1363.833374 364.320557 1305.679443 306.166626 1233.944458 306.166626 Z"/>
    <text id="Day" xml:space="preserve" x="525" y="994" font-family="Helvetica Neue" font-size="334" fill="#ffffff">Day</text>
    <path id="path1" fill="#929292" fill-rule="evenodd" stroke="none" d="M 389.666687 306.166748 C 338.427368 306.166748 296.888885 347.705078 296.888885 398.944458 L 296.888885 398.944458 C 296.888885 450.183838 338.427368 491.72229 389.666687 491.72229 L 1271.055542 491.72229 C 1322.294922 491.72229 1363.833374 450.183838 1363.833374 398.944458 L 1363.833374 398.944458 C 1363.833374 347.705078 1322.294922 306.166748 1271.055542 306.166748 Z"/>
    <path id="path2" fill="#929292" fill-rule="evenodd" stroke="none" d="M 296.888885 510.277832 L 1363.833374 510.277832 L 1363.833374 417.5 L 296.888885 417.5 Z"/>
</svg>
